<svg width="381" height="286" viewBox="0 0 381 286" fill="none" xmlns="http://www.w3.org/2000/svg">
<g clip-path="url(#clip0_2186_3345)">
<rect width="381" height="286" rx="4" fill="url(#paint0_radial_2186_3345)"/>
<mask id="mask0_2186_3345" style="mask-type:alpha" maskUnits="userSpaceOnUse" x="91" y="37" width="307" height="307">
<circle cx="244.934" cy="190.066" r="153.066" fill="url(#paint1_radial_2186_3345)"/>
</mask>
<g mask="url(#mask0_2186_3345)">
<path fill-rule="evenodd" clip-rule="evenodd" d="M342.783 110.989C327.337 101.863 302.62 89.3708 274.199 78.9019C243.56 67.6161 208.102 58.4886 175.066 58.7759L175.186 72.6239C205.852 72.3572 239.521 80.8865 269.412 91.8968C290.752 99.7573 309.903 108.784 324.301 116.494C305.017 122.424 287.502 128.417 273.753 133.809L272.465 134.314L271.724 134.926C250.595 123.658 221.716 115.523 193.722 109.792C161.266 103.148 128.993 99.5455 109.101 98.2583L108.207 112.078C127.552 113.33 159.189 116.859 190.945 123.359C216.355 128.561 241.217 135.547 259.91 144.471C229.298 168.607 199.171 187.774 170.908 202.869C161.236 196.528 152.052 190.812 143.373 185.675C99.0831 159.459 67.3423 147.946 50.9457 145.751L48.649 162.909C61.565 164.638 90.8961 174.729 134.556 200.571C140.488 204.083 146.673 207.878 153.105 211.974C91.1099 242.286 40.1577 252.737 16.2134 253.7L16.9092 270.997C44.6725 269.88 101.789 257.753 169.85 222.953C207.302 248.2 251.997 282.866 302.908 329.655L314.621 316.909C287.202 291.71 261.514 269.94 237.712 251.199C241.649 248.021 246.524 244.505 251.886 241.342C260.957 235.992 270.653 232.11 279.178 231.879C292.722 231.513 325.885 225.824 356.153 219.442C371.416 216.224 386.206 212.775 397.753 209.633C403.514 208.065 408.569 206.546 412.51 205.145C414.117 204.574 415.607 203.998 416.92 203.421C421.751 204.482 426.151 205.39 430.009 206.136L432.638 192.54C415.56 189.238 387.322 182.618 358.373 173.534C333.774 165.815 309.107 156.453 290.357 146.04C325.962 133.04 380.007 117.459 426.119 108.111L422.68 91.1459C397.011 96.349 368.934 103.444 342.783 110.989ZM244.85 229.415C237.706 233.629 231.338 238.391 226.511 242.495C212.685 231.894 199.536 222.345 187.099 213.764C215.609 197.962 245.691 178.211 276.088 153.713C296.999 166.744 326.23 177.962 354.226 186.747C366.818 190.698 379.275 194.192 390.782 197.162C380.112 199.969 366.953 203.013 353.296 205.892C322.804 212.32 290.879 217.709 278.804 218.036C266.832 218.359 254.717 223.594 244.85 229.415Z" fill="white"/>
</g>
<ellipse opacity="0.5" cx="269" cy="205.944" rx="24.2542" ry="8.67185" fill="url(#paint2_radial_2186_3345)"/>
<path d="M264.634 195.05C259.304 190.746 250.631 182.991 243.298 172.937C235.959 162.875 230.026 150.598 230.026 137.23C230.026 127.164 234.125 117.507 241.432 110.381C248.739 103.255 258.656 99.2459 269.001 99.2459C279.345 99.2459 289.261 103.254 296.568 110.381C303.875 117.506 307.974 127.167 307.974 137.233C307.974 150.601 302.041 162.877 294.703 172.938C287.37 182.992 278.697 190.747 273.367 195.05C271.782 196.33 271.179 196.795 270.274 197.046C269.561 197.244 268.437 197.244 267.724 197.046C266.822 196.795 266.214 196.326 264.634 195.05Z" fill="url(#paint3_linear_2186_3345)" stroke="white" stroke-width="2.05127" stroke-linecap="round" stroke-linejoin="round"/>
<path d="M253.49 124.111C253.49 120.949 256.61 118.733 259.595 119.774L281.429 127.388C283.274 128.031 284.51 129.771 284.51 131.724V162.874C284.51 166.036 281.39 168.252 278.405 167.211L256.571 159.598C254.726 158.954 253.49 157.214 253.49 155.261V124.111Z" fill="#C5D4EB"/>
<mask id="mask1_2186_3345" style="mask-type:alpha" maskUnits="userSpaceOnUse" x="253" y="119" width="32" height="49">
<path d="M253.49 124.111C253.49 120.949 256.61 118.733 259.595 119.774L281.429 127.388C283.274 128.031 284.51 129.771 284.51 131.724V162.874C284.51 166.036 281.39 168.252 278.405 167.211L256.571 159.598C254.726 158.954 253.49 157.214 253.49 155.261V124.111Z" fill="white"/>
</mask>
<g mask="url(#mask1_2186_3345)">
<path d="M250.728 126.194C250.728 123.032 253.848 120.816 256.833 121.857L278.667 129.471C280.512 130.114 281.748 131.854 281.748 133.807V164.957C281.748 168.119 278.628 170.335 275.642 169.294L253.809 161.681C251.964 161.037 250.728 159.297 250.728 157.344V126.194Z" fill="white"/>
</g>
<path d="M259.55 129.144C259.549 128.556 260.134 128.144 260.689 128.339L275.446 133.532C275.785 133.652 276.011 133.971 276.011 134.329L276.012 137.168C276.012 137.756 275.428 138.168 274.872 137.973L260.116 132.78C259.777 132.661 259.551 132.342 259.55 131.983L259.55 129.144Z" fill="#4B6EA4"/>
<path d="M161.193 177.101C161.193 184.126 167.426 189.935 170.184 192.163C170.579 192.482 170.779 192.643 171.073 192.725C171.303 192.788 171.64 192.788 171.869 192.725C172.164 192.643 172.363 192.483 172.759 192.163C175.518 189.936 181.75 184.127 181.75 177.102C181.75 174.443 180.667 171.893 178.739 170.013C176.812 168.133 174.198 167.077 171.472 167.077C168.746 167.077 166.131 168.133 164.204 170.013C162.276 171.893 161.193 174.442 161.193 177.101Z" fill="#62ACD8"/>
<path d="M329.222 105.328C329.222 112.354 335.454 118.163 338.212 120.39C338.607 120.709 338.807 120.87 339.101 120.952C339.331 121.016 339.668 121.016 339.898 120.952C340.193 120.87 340.391 120.71 340.787 120.391C343.546 118.163 349.778 112.354 349.778 105.329C349.778 102.671 348.695 100.121 346.767 98.2407C344.84 96.3608 342.226 95.3047 339.5 95.3047C336.774 95.3047 334.16 96.361 332.232 98.2408C330.305 100.121 329.222 102.67 329.222 105.328Z" fill="#92C1E1"/>
<path d="M310 249.639C310 258.106 317.512 265.109 320.837 267.794C321.313 268.178 321.554 268.372 321.909 268.471C322.185 268.548 322.592 268.548 322.869 268.471C323.224 268.372 323.463 268.18 323.941 267.794C327.266 265.109 334.778 258.107 334.778 249.639C334.778 246.435 333.473 243.361 331.149 241.095C328.826 238.829 325.675 237.556 322.389 237.556C319.103 237.556 315.952 238.829 313.629 241.095C311.305 243.361 310 246.434 310 249.639Z" fill="#86B6D6"/>
</g>
<defs>
<radialGradient id="paint0_radial_2186_3345" cx="0" cy="0" r="1" gradientUnits="userSpaceOnUse" gradientTransform="translate(267 170) rotate(-147.011) scale(339.779 452.643)">
<stop stop-color="#9AD5FB"/>
<stop offset="1" stop-color="#DBF0FF"/>
</radialGradient>
<radialGradient id="paint1_radial_2186_3345" cx="0" cy="0" r="1" gradientUnits="userSpaceOnUse" gradientTransform="translate(244.934 200.532) rotate(67.3406) scale(146.021)">
<stop stop-color="#737373"/>
<stop offset="1" stop-color="#737373" stop-opacity="0"/>
<stop offset="1" stop-color="#737373" stop-opacity="0"/>
</radialGradient>
<radialGradient id="paint2_radial_2186_3345" cx="0" cy="0" r="1" gradientUnits="userSpaceOnUse" gradientTransform="translate(269 205.944) rotate(90) scale(8.67185 24.2542)">
<stop stop-color="#0F68A0"/>
<stop offset="1" stop-color="#618EAB" stop-opacity="0"/>
</radialGradient>
<linearGradient id="paint3_linear_2186_3345" x1="269" y1="98.2202" x2="269" y2="198.22" gradientUnits="userSpaceOnUse">
<stop stop-color="#15386E"/>
<stop offset="1" stop-color="#5477AD"/>
</linearGradient>
<clipPath id="clip0_2186_3345">
<rect width="381" height="286" rx="4" fill="white"/>
</clipPath>
</defs>
</svg>
