<svg width="381" height="286" viewBox="0 0 381 286" fill="none" xmlns="http://www.w3.org/2000/svg">
<g clip-path="url(#clip0_2186_3372)">
<rect width="381" height="286" rx="4" fill="url(#paint0_linear_2186_3372)"/>
<ellipse opacity="0.5" cx="260.644" cy="209.985" rx="164.856" ry="52.6893" fill="url(#paint1_radial_2186_3372)"/>
<ellipse opacity="0.5" cx="260.644" cy="209.985" rx="83.3511" ry="27.5322" fill="url(#paint2_radial_2186_3372)"/>
<ellipse opacity="0.5" cx="260.644" cy="209.985" rx="29.2369" ry="10.4534" fill="url(#paint3_radial_2186_3372)"/>
<path d="M254.062 202.152L246.169 179.81L245.308 179.613L240.91 177.704L219.6 104.27C243.69 124.467 292.583 165.446 295.433 167.788C298.282 170.13 299.11 172.856 297.855 174.382C285.781 183.61 261.095 202.307 258.943 203.266C256.791 204.225 254.792 202.923 254.062 202.152Z" fill="#1C3356"/>
<path d="M308.034 160.883C295.122 166.637 271.857 187.709 263.051 197.179C245.976 175.361 214.519 130.781 215.116 129.226C215.861 127.281 244.179 107.762 246.713 105.924C248.74 104.453 250.412 105.156 250.995 105.692C268.866 122.255 306.08 156.208 306.876 156.691C307.672 157.175 310.173 159.93 308.034 160.883Z" fill="white"/>
<mask id="mask0_2186_3372" style="mask-type:alpha" maskUnits="userSpaceOnUse" x="215" y="105" width="94" height="92">
<path d="M308.034 160.883C295.122 166.637 274.4 187.156 265.594 196.627C248.519 174.808 214.519 130.781 215.116 129.226C215.861 127.281 244.179 107.762 246.713 105.924C248.74 104.453 250.412 105.156 250.995 105.692C268.866 122.255 306.08 156.208 306.876 156.691C307.672 157.175 310.173 159.93 308.034 160.883Z" fill="white"/>
</mask>
<g mask="url(#mask0_2186_3372)">
<path d="M308.722 157.868C295.81 163.622 275.088 184.142 266.282 193.612C249.207 171.793 215.207 127.766 215.804 126.211C216.549 124.266 244.867 104.747 247.401 102.909C249.428 101.438 251.1 102.141 251.683 102.677C269.554 119.24 306.768 153.193 307.564 153.677C308.36 154.16 310.861 156.915 308.722 157.868Z" fill="url(#paint4_linear_2186_3372)"/>
</g>
<path d="M314.15 152.611C301.238 158.366 280.516 178.885 271.71 188.355C254.635 166.536 220.635 122.51 221.232 120.954C221.978 119.01 250.295 99.4906 252.829 97.6521C254.856 96.1812 256.528 96.8849 257.111 97.4206C274.982 113.984 312.196 147.936 312.992 148.42C313.788 148.904 316.289 151.658 314.15 152.611Z" fill="white"/>
<mask id="mask1_2186_3372" style="mask-type:alpha" maskUnits="userSpaceOnUse" x="221" y="96" width="94" height="95">
<path d="M314.15 152.611C301.238 158.366 277.299 181.398 268.493 190.869C251.419 169.05 220.635 122.51 221.232 120.954C221.978 119.01 250.295 99.4907 252.829 97.6521C254.856 96.1812 256.528 96.8849 257.111 97.4206C274.982 113.984 312.196 147.936 312.992 148.42C313.788 148.904 316.289 151.658 314.15 152.611Z" fill="white"/>
</mask>
<g mask="url(#mask1_2186_3372)">
<path d="M317.994 145.03C305.081 150.784 284.36 171.304 275.554 180.774C258.479 158.955 224.479 114.928 225.076 113.373C225.821 111.428 254.139 91.9093 256.673 90.0708C258.7 88.5999 260.372 89.3036 260.955 89.8393C278.826 106.402 316.04 140.355 316.836 140.839C317.632 141.322 320.133 144.077 317.994 145.03Z" fill="url(#paint5_linear_2186_3372)"/>
</g>
<path d="M321.445 139.171C308.533 144.926 287.811 165.445 279.005 174.915C261.93 153.096 227.93 109.07 228.527 107.514C229.273 105.57 257.59 86.0507 260.124 84.2121C262.151 82.7413 263.823 83.4449 264.406 83.9806C282.277 100.544 319.491 134.496 320.287 134.98C321.083 135.464 323.584 138.218 321.445 139.171Z" fill="white"/>
<path d="M192.356 141.252L226.494 92.2483C228.082 91.6439 229.453 92.5205 229.94 93.0344C251.103 111.053 293.882 147.496 295.687 149.117C297.493 150.737 297.064 152.351 296.624 152.955C284.627 169.35 260.223 202.349 258.582 203.183C256.942 204.017 254.836 202.832 253.988 202.135C234.665 184.435 195.465 148.547 193.253 146.592C191.04 144.637 191.733 142.218 192.356 141.252Z" fill="url(#paint6_linear_2186_3372)"/>
<path fill-rule="evenodd" clip-rule="evenodd" d="M228.17 193.855C227.286 193.855 226.569 194.572 226.569 195.456V197.185L224.84 197.185C223.955 197.185 223.238 197.902 223.238 198.787C223.238 199.671 223.955 200.388 224.84 200.388H226.569V202.117C226.569 203.001 227.286 203.718 228.17 203.718C229.055 203.718 229.772 203.001 229.772 202.117V200.388H231.5C232.385 200.388 233.102 199.671 233.102 198.787C233.102 197.902 232.385 197.185 231.5 197.185L229.772 197.185V195.456C229.772 194.572 229.055 193.855 228.17 193.855Z" fill="#6FABCD"/>
<path fill-rule="evenodd" clip-rule="evenodd" d="M181.846 124.59C180.916 124.59 180.161 125.344 180.161 126.275V128.093L178.342 128.093C177.412 128.093 176.658 128.848 176.658 129.778C176.658 130.709 177.412 131.463 178.342 131.463H180.161V133.282C180.161 134.212 180.916 134.967 181.846 134.967C182.777 134.967 183.531 134.212 183.531 133.282V131.463H185.349C186.28 131.463 187.034 130.709 187.034 129.778C187.034 128.848 186.28 128.093 185.349 128.093L183.531 128.093V126.275C183.531 125.344 182.777 124.59 181.846 124.59Z" fill="#A3D8F2"/>
<path fill-rule="evenodd" clip-rule="evenodd" d="M289.88 186.059C290.765 186.059 291.482 186.776 291.482 187.661V189.389L293.211 189.389C294.095 189.389 294.812 190.106 294.812 190.991C294.813 191.875 294.095 192.592 293.211 192.592H291.482V194.321C291.482 195.206 290.765 195.923 289.88 195.923C288.996 195.923 288.279 195.206 288.279 194.321V192.592H286.55C285.666 192.592 284.949 191.875 284.949 190.991C284.949 190.106 285.666 189.389 286.55 189.389L288.279 189.389V187.661C288.279 186.776 288.996 186.059 289.88 186.059Z" fill="#62ACD8"/>
<path fill-rule="evenodd" clip-rule="evenodd" d="M241.265 208.145C240.736 208.145 240.308 208.573 240.308 209.102V210.136L239.274 210.136C238.746 210.136 238.317 210.564 238.317 211.093C238.317 211.622 238.746 212.05 239.274 212.05H240.308V213.084C240.308 213.613 240.736 214.041 241.265 214.041C241.794 214.041 242.222 213.613 242.222 213.084V212.05H243.256C243.785 212.05 244.213 211.622 244.213 211.093C244.213 210.564 243.785 210.136 243.256 210.136L242.222 210.136V209.102C242.222 208.573 241.794 208.145 241.265 208.145Z" fill="#92C7E6"/>
<path fill-rule="evenodd" clip-rule="evenodd" d="M280.907 197.822C281.436 197.822 281.865 198.251 281.865 198.779V199.813L282.898 199.813C283.427 199.813 283.855 200.242 283.855 200.77C283.855 201.299 283.427 201.728 282.898 201.728H281.865V202.761C281.865 203.29 281.436 203.718 280.907 203.718C280.379 203.718 279.95 203.29 279.95 202.761V201.728H278.916C278.388 201.728 277.959 201.299 277.959 200.77C277.959 200.242 278.388 199.813 278.916 199.813L279.95 199.813V198.779C279.95 198.251 280.379 197.822 280.907 197.822Z" fill="#92C7E6"/>
<g opacity="0.5">
<ellipse cx="130.743" cy="166.366" rx="13.75" ry="4.7375" fill="url(#paint7_radial_2186_3372)" style="mix-blend-mode:darken"/>
</g>
<path d="M135.365 155.598C135.596 157.968 136.089 159.454 136.307 159.902C135.468 160.619 132.287 161.724 126.27 160.404C118.748 158.753 116.613 151.816 116.349 149.793C116.137 148.176 115.624 145.429 115.394 144.258C116.187 146.809 119.859 146.3 122.946 146.702C132.726 148.014 135.015 154.222 135.365 155.598Z" fill="url(#paint8_linear_2186_3372)"/>
<mask id="mask2_2186_3372" style="mask-type:alpha" maskUnits="userSpaceOnUse" x="115" y="144" width="22" height="18">
<path d="M135.365 155.598C135.596 157.968 136.089 159.454 136.307 159.902C135.468 160.619 132.287 161.724 126.27 160.404C118.748 158.753 116.613 151.816 116.349 149.793C116.137 148.176 115.624 145.429 115.394 144.258C116.187 146.809 119.859 146.3 122.946 146.702C132.726 148.014 135.015 154.222 135.365 155.598Z" fill="#F6F6F6"/>
</mask>
<g mask="url(#mask2_2186_3372)">
<path d="M116.4 146.141C124.216 154.643 133.491 158.696 137.098 159.821C140.883 161.467 146.152 163.917 136.945 160.551C127.738 157.186 119.377 149.65 116.4 146.141Z" fill="#548850"/>
</g>
<g opacity="0.5">
<ellipse cx="13.75" cy="4.7375" rx="13.75" ry="4.7375" transform="matrix(-1 0 0 1 363.052 239.054)" fill="url(#paint9_radial_2186_3372)" style="mix-blend-mode:darken"/>
</g>
<path d="M346.925 239.732C347.675 241.991 347.827 243.55 347.81 244.047C348.868 244.363 352.224 244.081 357.188 240.433C363.393 235.873 362.529 228.666 361.95 226.71C361.487 225.146 360.842 222.428 360.577 221.264C360.887 223.917 357.325 224.942 354.666 226.561C346.259 231.729 346.687 238.332 346.925 239.732Z" fill="url(#paint10_linear_2186_3372)"/>
<mask id="mask3_2186_3372" style="mask-type:alpha" maskUnits="userSpaceOnUse" x="346" y="221" width="17" height="24">
<path d="M346.925 239.732C347.675 241.991 347.827 243.55 347.81 244.047C348.868 244.363 352.224 244.081 357.188 240.433C363.393 235.873 362.529 228.666 361.95 226.71C361.487 225.146 360.842 222.428 360.577 221.264C360.887 223.917 357.325 224.942 354.666 226.561C346.259 231.729 346.687 238.332 346.925 239.732Z" fill="#F6F6F6"/>
</mask>
<g mask="url(#mask3_2186_3372)">
<path d="M360.421 223.393C356.727 234.335 349.895 241.803 347.054 244.295C344.262 247.335 340.441 251.712 347.49 244.9C354.54 238.088 359.124 227.808 360.421 223.393Z" fill="#548850"/>
</g>
<rect x="208.927" y="141.308" width="36.5322" height="9.12043" rx="2" transform="rotate(-51.783 208.927 141.308)" fill="#0B244A"/>
</g>
<defs>
<linearGradient id="paint0_linear_2186_3372" x1="190.5" y1="0" x2="190.5" y2="286" gradientUnits="userSpaceOnUse">
<stop stop-color="#DAEFFE"/>
<stop offset="1" stop-color="#96D4FA"/>
</linearGradient>
<radialGradient id="paint1_radial_2186_3372" cx="0" cy="0" r="1" gradientUnits="userSpaceOnUse" gradientTransform="translate(260.644 209.985) scale(164.856 52.6893)">
<stop offset="0.125" stop-color="#9ED8FB" stop-opacity="0"/>
<stop offset="1" stop-color="#D3EEFF"/>
</radialGradient>
<radialGradient id="paint2_radial_2186_3372" cx="0" cy="0" r="1" gradientUnits="userSpaceOnUse" gradientTransform="translate(260.644 209.985) scale(83.3511 27.5322)">
<stop offset="0.325" stop-color="#99D5FB" stop-opacity="0"/>
<stop offset="1" stop-color="white"/>
</radialGradient>
<radialGradient id="paint3_radial_2186_3372" cx="0" cy="0" r="1" gradientUnits="userSpaceOnUse" gradientTransform="translate(260.644 209.985) rotate(90) scale(10.4534 29.2369)">
<stop stop-color="white" stop-opacity="0"/>
<stop offset="1" stop-color="white"/>
</radialGradient>
<linearGradient id="paint4_linear_2186_3372" x1="294.307" y1="163.453" x2="296.335" y2="166.483" gradientUnits="userSpaceOnUse">
<stop stop-color="#A3A3A3"/>
<stop offset="1" stop-color="white"/>
</linearGradient>
<linearGradient id="paint5_linear_2186_3372" x1="296.041" y1="150.557" x2="301.798" y2="157.761" gradientUnits="userSpaceOnUse">
<stop stop-color="#3D3D3D"/>
<stop offset="0.890363" stop-color="white"/>
</linearGradient>
<linearGradient id="paint6_linear_2186_3372" x1="234.178" y1="130.33" x2="259.13" y2="209.615" gradientUnits="userSpaceOnUse">
<stop stop-color="#14376D"/>
<stop offset="1" stop-color="#6083B8"/>
</linearGradient>
<radialGradient id="paint7_radial_2186_3372" cx="0" cy="0" r="1" gradientUnits="userSpaceOnUse" gradientTransform="translate(130.743 166.366) rotate(90) scale(4.7375 13.75)">
<stop stop-color="#0F68A0"/>
<stop offset="1" stop-color="#618EAB" stop-opacity="0"/>
</radialGradient>
<linearGradient id="paint8_linear_2186_3372" x1="136.493" y1="160.186" x2="118.518" y2="147.421" gradientUnits="userSpaceOnUse">
<stop stop-color="#508F56"/>
<stop offset="1" stop-color="#99CA6E"/>
</linearGradient>
<radialGradient id="paint9_radial_2186_3372" cx="0" cy="0" r="1" gradientUnits="userSpaceOnUse" gradientTransform="translate(13.75 4.7375) rotate(90) scale(4.7375 13.75)">
<stop stop-color="#0F68A0"/>
<stop offset="1" stop-color="#618EAB" stop-opacity="0"/>
</radialGradient>
<linearGradient id="paint10_linear_2186_3372" x1="347.755" y1="244.383" x2="359.005" y2="225.422" gradientUnits="userSpaceOnUse">
<stop stop-color="#508F56"/>
<stop offset="1" stop-color="#99CA6E"/>
</linearGradient>
<clipPath id="clip0_2186_3372">
<rect width="381" height="286" rx="4" fill="white"/>
</clipPath>
</defs>
</svg>
